<svg width="116" height="110" viewBox="0 0 116 110" fill="none" xmlns="http://www.w3.org/2000/svg">
<mask id="path-1-outside-1_103_21" maskUnits="userSpaceOnUse" x="0" y="0.00991821" width="116" height="110" fill="black">
<rect fill="white" y="0.00991821" width="116" height="110"/>
<path fill-rule="evenodd" clip-rule="evenodd" d="M112 43.3691H70.809L58.0437 4.00992L45.2785 43.3691H4L37.3961 67.6729L24.6381 107.01L58.027 82.687L91.4494 107.01L78.681 67.6411L112 43.3691Z"/>
</mask>
<path d="M70.809 43.3691L69.8577 43.6776L70.082 44.3691H70.809V43.3691ZM112 43.3691L112.589 44.1773L115.071 42.3691H112V43.3691ZM58.0437 4.00992L58.9949 3.70141L58.0437 0.768499L57.0925 3.70141L58.0437 4.00992ZM45.2785 43.3691V44.3691H46.0054L46.2297 43.6776L45.2785 43.3691ZM4 43.3691V42.3691H0.92643L3.41158 44.1776L4 43.3691ZM37.3961 67.6729L38.3473 67.9814L38.5712 67.2913L37.9845 66.8644L37.3961 67.6729ZM24.6381 107.01L23.6868 106.701L22.7362 109.633L25.2269 107.818L24.6381 107.01ZM58.027 82.687L58.6154 81.8784L58.0267 81.45L57.4382 81.8787L58.027 82.687ZM91.4494 107.01L90.861 107.818L93.3505 109.63L92.4006 106.701L91.4494 107.01ZM78.681 67.6411L78.0922 66.8328L77.5061 67.2598L77.7298 67.9496L78.681 67.6411ZM70.809 44.3691H112V42.3691H70.809V44.3691ZM57.0925 4.31843L69.8577 43.6776L71.7602 43.0606L58.9949 3.70141L57.0925 4.31843ZM46.2297 43.6776L58.9949 4.31843L57.0925 3.70141L44.3273 43.0606L46.2297 43.6776ZM4 44.3691H45.2785V42.3691H4V44.3691ZM37.9845 66.8644L4.58842 42.5605L3.41158 44.1776L36.8077 68.4815L37.9845 66.8644ZM25.5893 107.318L38.3473 67.9814L36.4449 67.3644L23.6868 106.701L25.5893 107.318ZM57.4382 81.8787L24.0492 106.202L25.2269 107.818L58.6158 83.4952L57.4382 81.8787ZM92.0378 106.201L58.6154 81.8784L57.4386 83.4955L90.861 107.818L92.0378 106.201ZM77.7298 67.9496L90.4982 107.318L92.4006 106.701L79.6322 67.3326L77.7298 67.9496ZM111.411 42.5608L78.0922 66.8328L79.2698 68.4493L112.589 44.1773L111.411 42.5608Z" fill="#292929" mask="url(#path-1-outside-1_103_21)"/>
</svg>
