<svg width="116" height="110" viewBox="0 0 116 110" fill="none" xmlns="http://www.w3.org/2000/svg">
<mask id="path-1-outside-1_103_22" maskUnits="userSpaceOnUse" x="0" y="0" width="116" height="110" fill="black">
<rect fill="white" width="116" height="110"/>
<path fill-rule="evenodd" clip-rule="evenodd" d="M112 43.3591H70.8088L58.0436 4L45.2784 43.3591H4L37.396 67.663L24.638 107L58.0269 82.677L91.4492 107L78.6809 67.6311L112 43.3591Z"/>
</mask>
<path fill-rule="evenodd" clip-rule="evenodd" d="M112 43.3591H70.8088L58.0436 4L45.2784 43.3591H4L37.396 67.663L24.638 107L58.0269 82.677L91.4492 107L78.6809 67.6311L112 43.3591Z" fill="#FFF500"/>
<path d="M70.8088 43.3591L69.8576 43.6676L70.0819 44.3591H70.8088V43.3591ZM112 43.3591L112.589 44.1674L115.071 42.3591H112V43.3591ZM58.0436 4L58.9948 3.69149L58.0436 0.758576L57.0924 3.69149L58.0436 4ZM45.2784 43.3591V44.3591H46.0054L46.2296 43.6676L45.2784 43.3591ZM4 43.3591V42.3591H0.926435L3.41158 44.1677L4 43.3591ZM37.396 67.663L38.3473 67.9715L38.5711 67.2813L37.9845 66.8544L37.396 67.663ZM24.638 107L23.6868 106.691L22.7361 109.623L25.2268 107.808L24.638 107ZM58.0269 82.677L58.6153 81.8685L58.0266 81.44L57.4381 81.8687L58.0269 82.677ZM91.4492 107L90.8608 107.809L93.3503 109.62L92.4004 106.691L91.4492 107ZM78.6809 67.6311L78.0921 66.8229L77.5059 67.2498L77.7296 67.9396L78.6809 67.6311ZM70.8088 44.3591H112V42.3591H70.8088V44.3591ZM57.0924 4.30851L69.8576 43.6676L71.76 43.0506L58.9948 3.69149L57.0924 4.30851ZM46.2296 43.6676L58.9948 4.30851L57.0924 3.69149L44.3272 43.0506L46.2296 43.6676ZM4 44.3591H45.2784V42.3591H4V44.3591ZM37.9845 66.8544L4.58842 42.5506L3.41158 44.1677L36.8076 68.4715L37.9845 66.8544ZM25.5892 107.308L38.3473 67.9715L36.4448 67.3545L23.6868 106.691L25.5892 107.308ZM57.4381 81.8687L24.0492 106.192L25.2268 107.808L58.6157 83.4853L57.4381 81.8687ZM92.0376 106.191L58.6153 81.8685L57.4385 83.4856L90.8608 107.809L92.0376 106.191ZM77.7296 67.9396L90.498 107.308L92.4004 106.691L79.6321 67.3226L77.7296 67.9396ZM111.411 42.5509L78.0921 66.8229L79.2697 68.4394L112.589 44.1674L111.411 42.5509Z" fill="#292929" mask="url(#path-1-outside-1_103_22)"/>
</svg>
